<?xml version="1.0" encoding="UTF-8"?>
<svg version="1.1" xmlns="http://www.w3.org/2000/svg" width="256" height="256">
<path d="M0 0 C84.48 0 168.96 0 256 0 C256 84.48 256 168.96 256 256 C171.52 256 87.04 256 0 256 C0 171.52 0 87.04 0 0 Z " fill="#3F3C3C" transform="translate(0,0)"/>
<path d="M0 0 C84.48 0 168.96 0 256 0 C256 84.48 256 168.96 256 256 C171.52 256 87.04 256 0 256 C0 171.52 0 87.04 0 0 Z M39.71728516 53.03271484 C17.64651276 78.31651979 11.5883646 109.33426145 13 142 C15.06248187 171.64312184 33.20726806 198.91089888 55 218 C75.91461154 234.70729901 101.06986032 243.43905917 127.75 243.3125 C128.97992676 243.30758545 130.20985352 243.3026709 131.47705078 243.29760742 C162.77968293 242.89512732 190.51523011 229.25169006 212.30053711 207.24072266 C224.37051478 194.58950479 232.67327729 179.36435078 238.3125 162.875 C238.55516602 162.17141357 238.79783203 161.46782715 239.04785156 160.74291992 C248.05701309 133.00502409 244.19312534 100.85392274 231.08203125 75.10546875 C216.19533639 47.42610581 192.48118898 27.81257378 162.875 17.6875 C162.17141357 17.44483398 161.46782715 17.20216797 160.74291992 16.95214844 C116.50565701 2.58405615 70.14364164 20.01343317 39.71728516 53.03271484 Z " fill="#FEFEFE" transform="translate(0,0)"/>
<path d="M0 0 C22.71474263 18.91150615 38.41873927 44.19884417 41.81689453 73.90576172 C44.46519701 104.19527998 36.49625772 132.91196429 17.5625 156.8125 C-2.58031974 180.28930369 -28.90262051 195.18890329 -60 198 C-91.17642743 200.07802694 -119.49380088 190.31011173 -143.0625 169.6875 C-153.40837664 160.07711222 -160.86808182 150.09391232 -168 138 C-165 138 -165 138 -163 139 C-154.22988791 140.18059201 -147.73584429 137.45086265 -140.7109375 132.33203125 C-140.14632812 131.89246094 -139.58171875 131.45289063 -139 131 C-138.14728516 132.17755859 -138.14728516 132.17755859 -137.27734375 133.37890625 C-124.10264115 151.3044198 -105.82763147 165.09383668 -83.33154297 168.71875 C-59.4795549 171.59597411 -37.35172443 166.49410025 -18 152 C-2.82280142 140.05436353 6.15725332 124.54773104 11.0144043 106.12426758 C12.65550185 100.30897292 15.32716527 96.15116022 19.1328125 91.43359375 C24.89913759 83.91806962 26.52613736 75.56556301 26.484375 66.2734375 C25.71127945 61.04880792 22.96674759 58.27337301 19 55 C18.34773437 54.43023437 17.69546875 53.86046875 17.0234375 53.2734375 C14.60061201 51.74864771 13.65780727 51.94194015 10.875 52.25 C8.4921875 52.07421875 8.4921875 52.07421875 6 51 C2.63083663 46.88624097 -0.01836859 42.41763122 -2.79003906 37.89013672 C-13.12359184 21.74760936 -31.88964141 10.93599289 -50.21142578 6.4597168 C-72.3292308 1.67309598 -93.74878687 5.38525383 -113 17 C-126.0513903 25.4294017 -135.33164693 35.53703141 -142.23925781 49.41430664 C-145.64942491 56.23977221 -148.32275271 61.12449216 -154.859375 65.3984375 C-158.91683508 68.43412844 -161.36699936 72.74010466 -164 77 C-164.639375 77.94875 -165.27875 78.8975 -165.9375 79.875 C-167.66218928 84.94761554 -167.97757264 89.72388098 -167 95 C-165.11483899 98.21586291 -162.76400966 100.52723929 -160 103 C-159.01646678 103.99570566 -158.03662278 104.99508599 -157.0625 106 C-156.381875 106.66 -155.70125 107.32 -155 108 C-156.32 108.99 -157.64 109.98 -159 111 C-161.56426499 109.90102929 -163.03345517 108.96330723 -164.9375 106.875 C-166.84893696 104.83343411 -166.84893696 104.83343411 -169.375 104.4375 C-173.23785549 105.26525475 -175.12367059 107.32434473 -178 110 C-183.71733912 79.16720689 -178.0894116 49.88926162 -160.60546875 23.77514648 C-143.8698967 -0.36857263 -117.77155385 -17.28309815 -88.875 -22.8125 C-57.56320345 -28.12218656 -24.67204786 -20.18273277 0 0 Z " fill="#F7F7F7" transform="translate(197,41)"/>
<path d="M0 0 C8.75493759 7.02375824 17.47957229 15.73528931 22 26.1875 C21.67 26.8475 21.34 27.5075 21 28.1875 C20.46632812 27.36507812 19.93265625 26.54265625 19.3828125 25.6953125 C10.8387808 12.78407224 1.10880072 3.01222221 -13 -3.8125 C-12.28714844 -3.30460937 -11.57429688 -2.79671875 -10.83984375 -2.2734375 C-7.87552243 -0.14295623 -4.93323215 2.01444064 -2 4.1875 C-1.34902344 4.66445312 -0.69804687 5.14140625 -0.02734375 5.6328125 C5.73359172 10.18163625 9.76993785 16.2596578 14 22.1875 C13.67 22.8475 13.34 23.5075 13 24.1875 C12.46632812 23.48625 11.93265625 22.785 11.3828125 22.0625 C4.88953259 13.79424046 -2.15587276 6.33239568 -12 2.1875 C-11.45472656 2.58839844 -10.90945312 2.98929688 -10.34765625 3.40234375 C-0.12049434 11.11205042 11.47991923 21.05239255 14.71875 34.078125 C14.8115625 34.77421875 14.904375 35.4703125 15 36.1875 C12.69467132 33.22449497 10.746305 30.15285273 8.8125 26.9375 C3.59733224 18.7203239 -2.49207599 12.89401115 -11 8.1875 C-10.35933594 8.73277344 -9.71867187 9.27804688 -9.05859375 9.83984375 C-1.59868251 16.34364118 5.00298593 23.01787949 9 32.1875 C5.46954907 31.01068302 4.89079173 30.0135914 2.75 27.0625 C-2.95832575 19.14716332 -2.95832575 19.14716332 -11 14.1875 C-10.25556641 14.77144531 -10.25556641 14.77144531 -9.49609375 15.3671875 C-3.88210354 19.99047356 0.07363043 25.08935725 4 31.1875 C2.515 31.6825 2.515 31.6825 1 32.1875 C-0.98 29.8775 -2.96 27.5675 -5 25.1875 C-4.62746094 25.74179688 -4.25492187 26.29609375 -3.87109375 26.8671875 C-3.39800781 27.59164062 -2.92492187 28.31609375 -2.4375 29.0625 C-1.96183594 29.78179687 -1.48617187 30.50109375 -0.99609375 31.2421875 C-0.66738281 31.88414063 -0.33867187 32.52609375 0 33.1875 C-0.495 34.1775 -0.495 34.1775 -1 35.1875 C-1.6290625 35.11789063 -2.258125 35.04828125 -2.90625 34.9765625 C-8.13873147 34.64559229 -11.24796261 34.86395637 -15.4375 38.1875 C-16.05496094 38.744375 -16.67242187 39.30125 -17.30859375 39.875 C-19 41.1875 -19 41.1875 -22 41.1875 C-23.65625 39.796875 -23.65625 39.796875 -25.5 37.9375 C-32.69943411 31.44749918 -40.7758143 29.77619428 -50.2734375 29.55859375 C-53.47113993 29.12337637 -55.29950808 27.90153124 -58 26.1875 C-62.3558698 25.63311657 -64.43700886 25.87944825 -68.3125 28 C-71.14569422 30.08630609 -71.14569422 30.08630609 -73 33.1875 C-76.01202881 32.02902738 -77.70497346 30.48113557 -79.8125 28.125 C-82.22465179 25.63346094 -83.0992067 25.15842217 -86.625 24.125 C-90.37668659 24.19447568 -91.24932156 24.82977563 -94 27.1875 C-95.485 26.6925 -95.485 26.6925 -97 26.1875 C-92.545 21.2375 -92.545 21.2375 -88 16.1875 C-92.96813276 20.28859424 -92.96813276 20.28859424 -97.25 25.0625 C-97.8275 25.76375 -98.405 26.465 -99 27.1875 C-99.99 27.1875 -100.98 27.1875 -102 27.1875 C-100.42778 23.48155285 -98.10320081 20.93173326 -95.375 18 C-92.52309629 15.44756294 -92.52309629 15.44756294 -91 12.1875 C-97.54649376 17.64188997 -97.54649376 17.64188997 -102.9375 24.1875 C-103.618125 25.1775 -104.29875 26.1675 -105 27.1875 C-105.66 27.1875 -106.32 27.1875 -107 27.1875 C-103.60044592 17.32701331 -95.37277207 9.98707971 -87 4.1875 C-98.01014274 10.02961656 -105.75849418 18.38044825 -112 29.1875 C-112.33 28.5275 -112.66 27.8675 -113 27.1875 C-106.8751666 14.85217119 -97.29059441 5.7427015 -86 -1.8125 C-97.58933436 3.48464525 -106.32894399 12.44408809 -113.37890625 22.875 C-114.79080464 24.88908156 -116.19985379 26.52414302 -118 28.1875 C-116.67383226 23.3989592 -114.6077759 19.8030641 -111.5625 15.9375 C-111.1185791 15.37321289 -110.6746582 14.80892578 -110.21728516 14.22753906 C-83.47433364 -18.93634544 -34.31170056 -26.10035342 0 0 Z " fill="#E2BE52" transform="translate(176,64.8125)"/>
<path d="M0 0 C-0.64985095 4.71370756 -2.51561392 8.57686444 -4.5625 12.8125 C-4.89185547 13.50537109 -5.22121094 14.19824219 -5.56054688 14.91210938 C-6.36872251 16.61044948 -7.18368377 18.30555769 -8 20 C-4.14679713 13.84771941 -0.75912543 7.71928194 2 1 C2.66 1 3.32 1 4 1 C2.70021649 8.79870106 -0.26646758 15.06126522 -4 22 C0.04769554 15.81475738 3.84461976 9.6894061 7 3 C8.77175938 8.31527814 5.34430993 13.16088124 3 18 C-1.03534924 25.38674098 -5.76887421 31.35152493 -12 37 C-0.31615973 28.05067554 6.72414611 15.52090927 12 2 C13.84734336 6.84210494 11.49405846 10.36509844 9.515625 14.84375 C5.38991268 23.43543957 0.11171622 30.70937405 -6 38 C-4.30508022 36.35644143 -2.6481898 34.68981076 -1 33 C-0.20335937 32.21496094 -0.20335937 32.21496094 0.609375 31.4140625 C8.84535102 22.76250971 14.01535055 11.14128957 18 0 C19 2 19 2 18.21484375 4.87109375 C10.16199164 27.35505087 -3.18092331 44.31204129 -25 55 C-44.7666206 62.9402578 -66.00212587 65.13815388 -86.13232422 57.15429688 C-102.55431026 50.00737571 -115.12038684 39.92452201 -125 25 C-124.67 24.34 -124.34 23.68 -124 23 C-123.39865234 23.81791016 -123.39865234 23.81791016 -122.78515625 24.65234375 C-115.07178441 34.88436762 -106.8552769 42.25907509 -96 49 C-96.70382813 48.44699219 -97.40765625 47.89398438 -98.1328125 47.32421875 C-106.36501823 40.65097296 -113.89094434 33.71185754 -120 25 C-119.67 24.34 -119.34 23.68 -119 23 C-118.24976562 23.85722656 -117.49953125 24.71445313 -116.7265625 25.59765625 C-107.37650259 36.11493581 -97.93885527 43.18071254 -85 49 C-84.67 49 -84.34 49 -84 49 C-84.60585937 48.731875 -85.21171875 48.46375 -85.8359375 48.1875 C-95.62245219 43.61042236 -108.65600578 35.51326907 -113.21875 25.26171875 C-113.4765625 24.51535156 -113.734375 23.76898438 -114 23 C-113.360625 23.66 -112.72125 24.32 -112.0625 25 C-111.04636888 26.0047777 -110.02480108 27.00406655 -109 28 C-108.36835937 28.61617187 -107.73671875 29.23234375 -107.0859375 29.8671875 C-100.70183006 35.83342609 -92.810634 42.34669813 -84 44 C-84.84304687 43.52949219 -85.68609375 43.05898437 -86.5546875 42.57421875 C-87.65039062 41.95160156 -88.74609375 41.32898438 -89.875 40.6875 C-90.96554688 40.07261719 -92.05609375 39.45773438 -93.1796875 38.82421875 C-96 37 -96 37 -98 34 C-92.98685481 35.49039452 -88.38945344 37.62943857 -83.68359375 39.87890625 C-80.69115245 41.23252697 -80.69115245 41.23252697 -76 42 C-80.95 39.525 -80.95 39.525 -86 37 C-81.8243419 35.95608547 -80.81981369 36.11997273 -76.9375 37.4375 C-74.03724969 38.41006514 -72.0823645 39 -69 39 C-71.97 38.01 -74.94 37.02 -78 36 C-76.00497118 30.01491354 -69.12715037 26.44827259 -64.0625 23 C-57.9195218 20.99412957 -52.60605608 20.76748877 -46.6796875 23.5703125 C-44.45112587 24.84746963 -42.22707071 26.13252558 -40.0078125 27.42578125 C-35.75198665 29.65318101 -33.7100518 29.87814525 -29 29 C-18.36759163 25.64131286 -13.28885795 16.26960937 -8.10766602 7.10424805 C-4.04355276 0 -4.04355276 0 0 0 Z " fill="#E1BD52" transform="translate(186,145)"/>
<path d="M0 0 C2.97 0.495 2.97 0.495 6 1 C7.26808601 4.80425803 6.51163186 5.87276633 5.0078125 9.53125 C4.55438477 10.64322754 4.10095703 11.75520508 3.63378906 12.90087891 C3.13588867 14.08858887 2.63798828 15.27629883 2.125 16.5 C1.62194336 17.71220215 1.11888672 18.9244043 0.60058594 20.17333984 C-15.48946894 58.74473447 -15.48946894 58.74473447 -28 65 C-30.8125 65.375 -30.8125 65.375 -34 65 C-36.57285724 62.827365 -38.48996919 61.02006162 -40 58 C-40.35555556 50.53333333 -40.35555556 50.53333333 -38 47 C-35.48696195 47.43328242 -34.28483439 47.6780133 -32.5625 49.625 C-31.05662664 51.23626511 -31.05662664 51.23626511 -28.6875 51.125 C-24.71197248 49.46082569 -22.41987885 46.50729277 -20 43 C-19.67 42.01 -19.34 41.02 -19 40 C-19.680625 40.66 -20.36125 41.32 -21.0625 42 C-24.67917361 44.46241608 -26.70677141 44.48602588 -31 44 C-31.66 43.34 -32.32 42.68 -33 42 C-33 41.01 -33 40.02 -33 39 C-33.66 39 -34.32 39 -35 39 C-35.226875 39.5775 -35.45375 40.155 -35.6875 40.75 C-37.98058668 44.68100574 -40.73867291 46.61387946 -45.0625 47.9375 C-48.60260577 48.0128214 -49.48271578 47.40622756 -52 45 C-53.45414822 40.37884186 -52.46683399 36.09014864 -50.6015625 31.734375 C-48.83486786 28.41700079 -46.96873077 25.20122132 -45 22 C-44.21882813 20.71029297 -44.21882813 20.71029297 -43.421875 19.39453125 C-42.30513085 17.58142653 -41.15681482 15.78780471 -40 14 C-44.56943885 16.29290838 -47.2096695 19.42013912 -50.125 23.5 C-50.59583008 24.14203369 -51.06666016 24.78406738 -51.55175781 25.44555664 C-54.26772151 29.24421124 -56.67622804 33.11566823 -58.9140625 37.21484375 C-59.62731689 38.51615234 -59.62731689 38.51615234 -60.35498047 39.84375 C-61.27282135 41.55028509 -62.1659627 43.27037617 -63.03173828 45.00390625 C-64.22154241 47.23013952 -65.28808021 49.14385038 -67 51 C-70.640625 51.53515625 -70.640625 51.53515625 -74 51 C-77.00451938 50.67460431 -77.00451938 50.67460431 -78.75 52.5 C-81.91585389 54.61056926 -84.27954572 54.34448651 -88 54 C-90.49498754 51.50501246 -90.35223401 50.58579618 -90.4375 47.125 C-90.14540644 34.61365908 -82.12874205 23.5216748 -76 13 C-73.625 13.3125 -73.625 13.3125 -71 14 C-70.01 15.485 -70.01 15.485 -69 17 C-69.55429688 18.07378906 -70.10859375 19.14757812 -70.6796875 20.25390625 C-71.41178258 21.68993891 -72.14353523 23.12614618 -72.875 24.5625 C-73.23980469 25.26697266 -73.60460937 25.97144531 -73.98046875 26.69726562 C-76.19942197 31.07465515 -77.81066956 35.23641861 -79 40 C-74.44578268 38.6084336 -72.70124436 36.88881845 -70 33 C-67.56541804 28.29604319 -65.35288326 23.48204654 -63.15429688 18.6640625 C-62.69216797 17.69726562 -62.23003906 16.73046875 -61.75390625 15.734375 C-61.34470947 14.84975586 -60.9355127 13.96513672 -60.51391602 13.05371094 C-59 11 -59 11 -56.47241211 10.08300781 C-54 10 -54 10 -51.6875 11.9375 C-51.130625 12.618125 -50.57375 13.29875 -50 14 C-49.50371094 13.48308594 -49.00742188 12.96617188 -48.49609375 12.43359375 C-42.90746269 7.01463649 -42.90746269 7.01463649 -38.125 6.9375 C-35 8 -35 8 -33 10 C-32.39974311 16.3299817 -33.62564849 20.41776521 -36.5 26 C-36.83386719 26.67933594 -37.16773438 27.35867187 -37.51171875 28.05859375 C-38.32712952 29.71271274 -39.16159728 31.35741507 -40 33 C-33.34059701 30.63415947 -31.58726704 26.26095345 -28.6875 20.1875 C-25.09375826 12.8787553 -20.50932354 5.67477535 -13 2 C-9.36711987 1.49139678 -7.73633962 1.5349434 -4.625 3.5 C-4.08875 3.995 -3.5525 4.49 -3 5 C-2.01 3.35 -1.02 1.7 0 0 Z " fill="#FAFAFA" transform="translate(180,101)"/>
<path d="M0 0 C0 0.99 0 1.98 0 3 C-2 4.6875 -2 4.6875 -4 6 C-2.824375 7.11375 -2.824375 7.11375 -1.625 8.25 C3.48450678 13.60281663 3.48858975 17.99670289 3.3828125 25.25 C2.53197414 33.58474314 -1.00859198 41.15472388 -7 47 C-12.26315789 51 -12.26315789 51 -16 51 C-12.12061949 58.09642776 -7.74356437 63.1354634 0 66 C4.91315489 66.41390072 8.69767946 65.31515006 13 63 C15.50031654 66.75047482 15.53603554 68.55856266 15 73 C11.95731343 76.78279952 9.65738259 78.62711683 4.80078125 79.30859375 C-1.13742612 79.61622459 -4.59364475 78.79102352 -9.12890625 74.89453125 C-14.28224238 69.67664393 -24 59.65101311 -24 52 C-25.32 51.34 -26.64 50.68 -28 50 C-28.46148437 50.95519531 -28.92296875 51.91039062 -29.3984375 52.89453125 C-34.11049035 62.35053317 -39.71174515 73.28732619 -49.625 78.1875 C-58.52185577 80.32933565 -58.52185577 80.32933565 -62.76953125 78.05078125 C-66.07913042 75.49812204 -68.16482698 73.0830681 -69 69 C-68.97266892 61.26530571 -68.97266892 61.26530571 -66.63671875 58.2265625 C-65 57 -65 57 -62 57 C-61.5875 57.825 -61.175 58.65 -60.75 59.5 C-60.1725 60.325 -59.595 61.15 -59 62 C-54.99927544 62.67936832 -52.68334176 62.31319831 -49 60.625 C-41.26842011 53.8598676 -36.54315512 43.96915395 -31.5625 35.125 C-19.21255061 13.21255061 -19.21255061 13.21255061 -15 9 C-23.80088345 8.15736222 -30.17405539 10.09933049 -37.078125 15.6796875 C-41.56751784 19.92386141 -44.83341834 24.00153012 -45.1875 30.375 C-45.125625 31.24125 -45.06375 32.1075 -45 33 C-43.02 33.66 -41.04 34.32 -39 35 C-39.26502196 38.79864807 -39.80397151 40.74055052 -42.125 43.8125 C-45.61265333 46.46614927 -47.62652682 47.07809774 -52 47 C-54.80189446 45.23358828 -56.51524911 43.96950178 -58 41 C-58.66848995 33.2455166 -56.83598992 28.6017072 -52.046875 22.51953125 C-43.8944349 13.09861708 -34.6525427 5.01332431 -22 3 C-18.42724062 2.742172 -14.85483132 2.55835333 -11.27734375 2.37890625 C-6.96191078 1.87998253 -4.41675783 0 0 0 Z " fill="#F9F9F9" transform="translate(91,93)"/>
<path d="M0 0 C3.16591041 1.98278584 4.75303504 3.07782232 5.734375 6.7421875 C5.79329107 18.55485937 1.00759554 28.92037041 -7.18359375 37.44140625 C-11.50033333 41.14544731 -15.07281907 43.03159313 -20.8125 42.9375 C-23.90629821 42.02755935 -25.19480582 41.60750271 -27 39 C-29.58148844 31.25553467 -27.18413533 24.50827933 -23.78125 17.484375 C-18.99358787 8.81338693 -10.89397712 -1.33395638 0 0 Z " fill="#F7F7F7" transform="translate(210,96)"/>
<path d="M0 0 C3.55814441 3.44336556 4.86867009 4.83679226 5.4375 9.875 C5.34529909 17.00904527 1.90581716 23.68463814 -2.74609375 28.9921875 C-6.81323801 32.63359505 -11.39595264 36 -17 36 C-14.76541062 28.73003521 -11.81219069 22.02712985 -8.5 15.1875 C-8.01402344 14.16462891 -7.52804688 13.14175781 -7.02734375 12.08789062 C-4.94907448 7.76429774 -2.99876613 3.76761036 0 0 Z " fill="#3E3C3D" transform="translate(82,103)"/>
<path d="M0 0 C3.5 0.875 3.5 0.875 5.4375 2.5 C6.94897644 5.8785944 6.94294236 8.20490614 6.5 11.875 C3.42307692 17.41346154 3.42307692 17.41346154 0.5 18.875 C-1.49960012 18.914992 -3.50047242 18.91846799 -5.5 18.875 C-5.22686864 14.86907334 -5.02323517 13.334426 -1.9375 10.625 C-1.133125 10.0475 -0.32875 9.47 0.5 8.875 C0.5 8.215 0.5 7.555 0.5 6.875 C-0.48475214 7.97418816 -1.46260473 9.0795602 -2.4375 10.1875 C-3.25541016 11.10982422 -3.25541016 11.10982422 -4.08984375 12.05078125 C-5.70081559 13.92741958 -5.70081559 13.92741958 -6.5 16.875 C-7.49 16.545 -8.48 16.215 -9.5 15.875 C-10.93304064 13.00891871 -10.80644155 11.06199217 -10.5 7.875 C-7.80049859 3.03451472 -5.90452721 -0.21087597 0 0 Z " fill="#E9E9E9" transform="translate(115.5,94.125)"/>
<path d="M0 0 C0.721875 0.103125 1.44375 0.20625 2.1875 0.3125 C2.84713769 7.89833339 0.20168863 13.90921576 -3.625 20.375 C-6.55880837 22.97351598 -8.97094834 23.09087202 -12.8125 23.3125 C-13.53701486 15.48773949 -11.13907213 9.88781614 -6.54296875 3.56640625 C-4.44042738 1.21022496 -3.16125012 0.35125001 0 0 Z " fill="#3C3A3B" transform="translate(207.8125,100.6875)"/>
<path d="M0 0 C2.08984375 2.484375 2.08984375 2.484375 3.9375 5.75 C4.56527344 6.81734375 5.19304687 7.8846875 5.83984375 8.984375 C7 12 7 12 6.34375 14.28125 C4.5302899 16.60079199 2.63300324 17.71560818 0 19 C-0.99 19 -1.98 19 -3 19 C-4.17441535 16.89983377 -5.33964012 14.79541245 -6.5 12.6875 C-6.83386719 12.09259766 -7.16773438 11.49769531 -7.51171875 10.88476562 C-9.06825114 8.04171156 -10 6.29339012 -10 3 C-6.6780059 0.43731883 -4.17384435 -0.71678482 0 0 Z " fill="#434142" transform="translate(176,204)"/>
<path d="M0 0 C3.81583379 0.65179251 6.02881405 1.46898975 9 4 C8.4520917 8.2829452 6.97567196 10.85135641 4.4375 14.3125 C3.79683594 15.19550781 3.15617187 16.07851562 2.49609375 16.98828125 C2.00238281 17.65214844 1.50867188 18.31601563 1 19 C-2.81583379 18.34820749 -5.02881405 17.53101025 -8 15 C-7.4520917 10.7170548 -5.97567196 8.14864359 -3.4375 4.6875 C-2.79683594 3.80449219 -2.15617187 2.92148438 -1.49609375 2.01171875 C-0.75552734 1.01591797 -0.75552734 1.01591797 0 0 Z " fill="#464445" transform="translate(75,200)"/>
<path d="M0 0 C2.23828125 2.28515625 2.23828125 2.28515625 4.3125 5.0625 C5.00988281 5.98160156 5.70726562 6.90070313 6.42578125 7.84765625 C7.20501953 8.91306641 7.20501953 8.91306641 8 10 C5.42420709 15.29407649 5.42420709 15.29407649 3 17 C-0.20349335 16.783262 -1.65459452 16.32335832 -4.01953125 14.109375 C-4.90705078 12.94148437 -4.90705078 12.94148437 -5.8125 11.75 C-6.41707031 10.98171875 -7.02164063 10.2134375 -7.64453125 9.421875 C-9.19136298 6.65808344 -9.4094485 5.11810783 -9 2 C-6.04050048 -1.2883328 -4.07970805 -1.37811566 0 0 Z " fill="#444243" transform="translate(188,197)"/>
<path d="M0 0 C0 0.99 0 1.98 0 3 C-1.65 3.33 -3.3 3.66 -5 4 C-4.67 4.99 -4.34 5.98 -4 7 C-3.01 7.33 -2.02 7.66 -1 8 C-1 7.34 -1 6.68 -1 6 C0.98 6 2.96 6 5 6 C5 9.63 5 13.26 5 17 C1.00889681 18.9955516 -0.69986566 19.19546065 -5 19 C-5.70005949 16.92085336 -6.38462244 14.83648414 -7.0625 12.75 C-7.44535156 11.58984375 -7.82820312 10.4296875 -8.22265625 9.234375 C-9.31222543 4.70089118 -9.31222543 4.70089118 -8 2 C-5.25822503 0.83328724 -2.99432393 0 0 0 Z " fill="#424041" transform="translate(155,212)"/>
<path d="M0 0 C3.71045247 1.57780923 6.29906384 3.90703248 9.25 6.625 C10.14203125 7.44226563 11.0340625 8.25953125 11.953125 9.1015625 C12.96632812 10.04128906 12.96632812 10.04128906 14 11 C13.01 12.485 13.01 12.485 12 14 C9.03 13.34 6.06 12.68 3 12 C5.475 13.98 5.475 13.98 8 16 C7.67 17.32 7.34 18.64 7 20 C3.09714233 18.41332422 0.66479018 15.86649519 -2.25 12.875 C-3.14203125 11.96492187 -4.0340625 11.05484375 -4.953125 10.1171875 C-5.62859375 9.41851562 -6.3040625 8.71984375 -7 8 C-6.01 7.01 -5.02 6.02 -4 5 C-1.69 5.66 0.62 6.32 3 7 C1.68 5.68 0.36 4.36 -1 3 C-0.67 2.01 -0.34 1.02 0 0 Z " fill="#444343" transform="translate(195,185)"/>
<path d="M0 0 C2.6875 0.3125 2.6875 0.3125 5 1 C5.33 1.99 5.66 2.98 6 4 C4.68886257 6.43581513 3.34837067 8.65138836 1.8125 10.9375 C1.41224609 11.55818359 1.01199219 12.17886719 0.59960938 12.81835938 C-1.63361084 16.2170527 -3.8383722 19.38822051 -7 22 C-7.99 22 -8.98 22 -10 22 C-9.72809869 13.57105937 -6.9132203 7.6338133 -1.47265625 1.19140625 C-0.98667969 0.79824219 -0.50070313 0.40507813 0 0 Z " fill="#3F3D3E" transform="translate(169,109)"/>
<path d="M0 0 C1.98 0 3.96 0 6 0 C5.67 1.32 5.34 2.64 5 4 C4.01 4 3.02 4 2 4 C2 4.99 2 5.98 2 7 C3.94999129 6.80528889 3.94999129 6.80528889 6 6 C7.28436734 4.0162233 7.28436734 4.0162233 8 2 C14.75 2.875 14.75 2.875 17 4 C16.25 11.75 16.25 11.75 14 14 C11.375 13.625 11.375 13.625 9 13 C9.33 12.01 9.66 11.02 10 10 C10.99 9.67 11.98 9.34 13 9 C13 8.34 13 7.68 13 7 C11.05000871 7.19471111 11.05000871 7.19471111 9 8 C7.71563266 9.9837767 7.71563266 9.9837767 7 12 C3.26512223 11.5020163 1.18762365 11.12508244 -2 9 C-1.125 2.25 -1.125 2.25 0 0 Z " fill="#474546" transform="translate(213,150)"/>
<path d="M0 0 C3.34708051 1.54841575 6.24667512 3.49105864 9.25 5.625 C10.14203125 6.25664062 11.0340625 6.88828125 11.953125 7.5390625 C12.96632812 8.26222656 12.96632812 8.26222656 14 9 C13.15625 14.7578125 13.15625 14.7578125 11.75 16.9375 C10 18 10 18 7.72265625 17.7890625 C4.50200641 16.85567474 2.38588913 15.4163187 -0.3125 13.4375 C-1.19550781 12.79683594 -2.07851562 12.15617188 -2.98828125 11.49609375 C-3.65214844 11.00238281 -4.31601563 10.50867188 -5 10 C-4.67 8.68 -4.34 7.36 -4 6 C-0.4055228 7.72470431 2.86157026 9.80019492 6.1953125 11.9765625 C7.94417257 13.16443253 7.94417257 13.16443253 10 13 C10 12.34 10 11.68 10 11 C8.21601386 9.71993203 6.37146094 8.52339649 4.5 7.375 C3.4790625 6.74335938 2.458125 6.11171875 1.40625 5.4609375 C0.21515625 4.73777344 0.21515625 4.73777344 -1 4 C-0.67 2.68 -0.34 1.36 0 0 Z " fill="#454344" transform="translate(203,173)"/>
<path d="M0 0 C1.258125 -0.020625 2.51625 -0.04125 3.8125 -0.0625 C4.52019531 -0.07410156 5.22789063 -0.08570313 5.95703125 -0.09765625 C8 0 8 0 11 1 C11 1.99 11 2.98 11 4 C8.36 3.67 5.72 3.34 3 3 C3 4.65 3 6.3 3 8 C4.65 8 6.3 8 8 8 C8 8.99 8 9.98 8 11 C6.02 11 4.04 11 2 11 C2 12.32 2 13.64 2 15 C4.31 15.33 6.62 15.66 9 16 C9 16.99 9 17.98 9 19 C5.37 18.67 1.74 18.34 -2 18 C-1.85805236 15.93722893 -1.71127784 13.87478969 -1.5625 11.8125 C-1.48128906 10.66394531 -1.40007812 9.51539063 -1.31640625 8.33203125 C-1.04596188 5.48401829 -0.62478253 2.78789518 0 0 Z " fill="#484647" transform="translate(113,215)"/>
<path d="M0 0 C3.34129034 0.75810789 5.52736314 1.52736314 8 4 C8.25 6.6875 8.25 6.6875 8 9 C6.68 9.33 5.36 9.66 4 10 C3.67 8.35 3.34 6.7 3 5 C1.82460004 5.92652701 0.65989423 6.86663387 -0.5 7.8125 C-1.1496875 8.33457031 -1.799375 8.85664063 -2.46875 9.39453125 C-4.34509128 10.99204833 -4.34509128 10.99204833 -4 14 C-3.34 14.33 -2.68 14.66 -2 15 C-2 14.34 -2 13.68 -2 13 C-1.01 13.33 -0.02 13.66 1 14 C0.67 15.32 0.34 16.64 0 18 C-3.28993102 18.36554789 -4.63099885 18.26218503 -7.375 16.3125 C-9 14 -9 14 -8.85546875 11.65625 C-7.80647507 8.39910068 -6.27317446 6.67147126 -3.9375 4.1875 C-3.20402344 3.39730469 -2.47054687 2.60710937 -1.71484375 1.79296875 C-1.14894531 1.20128906 -0.58304688 0.60960937 0 0 Z " fill="#474546" transform="translate(64,191)"/>
<path d="M0 0 C3.63 0 7.26 0 11 0 C11 0.99 11 1.98 11 3 C8.36 3 5.72 3 3 3 C3 4.32 3 5.64 3 7 C4.98 7 6.96 7 9 7 C9 7.99 9 8.98 9 10 C7.35 10 5.7 10 4 10 C4 11.65 4 13.3 4 15 C6.31 15 8.62 15 11 15 C11 15.99 11 16.98 11 18 C7.37 18 3.74 18 0 18 C0 12.06 0 6.12 0 0 Z " fill="#454344" transform="translate(127,216)"/>
<path d="M0 0 C3.83663072 1.34929464 6.65172569 3.07751025 9.8125 5.625 C10.99779297 6.57246094 10.99779297 6.57246094 12.20703125 7.5390625 C12.79871094 8.02117187 13.39039062 8.50328125 14 9 C13.34 9.66 12.68 10.32 12 11 C9.69 9.35 7.38 7.7 5 6 C6.485 7.423125 6.485 7.423125 8 8.875 C9.6875 10.4921875 9.6875 10.4921875 11 12 C11 12.66 11 13.32 11 14 C10.030625 13.67 9.06125 13.34 8.0625 13 C5.37850426 11.94826637 5.37850426 11.94826637 4 12 C5.32 12.99 6.64 13.98 8 15 C7.67 15.99 7.34 16.98 7 18 C4.99092002 16.57391198 2.99330486 15.13533968 1 13.6875 C0.42765625 13.28337891 -0.1446875 12.87925781 -0.734375 12.46289062 C-2.21208644 11.38099475 -3.61254109 10.19544451 -5 9 C-5 8.01 -5 7.02 -5 6 C-1.97580475 6.58803797 1.01758453 7.22678118 4 8 C2.35 6.35 0.7 4.7 -1 3 C-0.67 2.01 -0.34 1.02 0 0 Z " fill="#494748" transform="translate(46,62)"/>
<path d="M0 0 C0.57492188 0.36996094 1.14984375 0.73992188 1.7421875 1.12109375 C-0.77546649 3.31035809 -3.26230958 4.57552806 -6.3203125 5.80859375 C-20.63682022 12.00142521 -30.18432036 23.23786161 -38.2578125 36.12109375 C-38.5878125 35.46109375 -38.9178125 34.80109375 -39.2578125 34.12109375 C-33.33326151 21.78564804 -22.81999871 11.1702976 -11.2578125 4.12109375 C-10.43796875 3.59257813 -9.618125 3.0640625 -8.7734375 2.51953125 C-2.84092165 -1.1058951 -2.84092165 -1.1058951 0 0 Z " fill="#B09043" transform="translate(97.2578125,56.87890625)"/>
<path d="M0 0 C2.54261188 2.4409074 4.85429885 4.998088 7.125 7.6875 C15.97879535 17.84945783 25.12258029 25.08291416 38 29 C39.67363977 29.64896236 41.34461042 30.30580437 43 31 C42.01 31.33 41.02 31.66 40 32 C39.34 31.67 38.68 31.34 38 31 C38 31.66 38 32.32 38 33 C22.49436418 28.20444253 7.84877576 16.32758339 0 2 C0 1.34 0 0.68 0 0 Z " fill="#C4A148" transform="translate(61,168)"/>
<path d="M0 0 C2.475 0.99 2.475 0.99 5 2 C4.69723124 8.05537521 1.72245962 11.51483458 -2 16 C-3.65 15.67 -5.3 15.34 -7 15 C-7.74609375 13.359375 -7.74609375 13.359375 -8 11 C-6.34765625 8.203125 -6.34765625 8.203125 -4.0625 5.25 C-3.31097656 4.26515625 -2.55945313 3.2803125 -1.78515625 2.265625 C-0.90150391 1.14414062 -0.90150391 1.14414062 0 0 Z " fill="#525051" transform="translate(183,39)"/>
<path d="M0 0 C14.25925749 6.92592507 28.50278013 19.31063333 35 34 C34.505 34.99 34.505 34.99 34 36 C33.46632812 35.17757812 32.93265625 34.35515625 32.3828125 33.5078125 C24.66320414 21.8423925 16.21356835 13.07298813 4 6 C3.15695313 5.46632813 2.31390625 4.93265625 1.4453125 4.3828125 C-0.86220473 3.07792256 -2.74074643 2.37915757 -5.3125 1.8125 C-6.529375 1.544375 -7.74625 1.27625 -9 1 C-5.58933967 -1.1474528 -3.8377134 -1.04150334 0 0 Z " fill="#AA8C42" transform="translate(163,57)"/>
<path d="M0 0 C1.10214844 0.37511719 1.10214844 0.37511719 2.2265625 0.7578125 C2.60649132 4.09999882 2.46192421 5.42736046 0.4765625 8.21484375 C-0.2659375 8.99214844 -1.0084375 9.76945312 -1.7734375 10.5703125 C-2.5159375 11.36050781 -3.2584375 12.15070312 -4.0234375 12.96484375 C-4.8896875 13.85236328 -4.8896875 13.85236328 -5.7734375 14.7578125 C-7.0934375 14.4278125 -8.4134375 14.0978125 -9.7734375 13.7578125 C-10.5 11.5625 -10.5 11.5625 -10.7734375 8.7578125 C-9.296875 6.265625 -9.296875 6.265625 -7.1484375 3.8828125 C-6.45492187 3.08101562 -5.76140625 2.27921875 -5.046875 1.453125 C-2.7734375 -0.2421875 -2.7734375 -0.2421875 0 0 Z " fill="#444343" transform="translate(193.7734375,46.2421875)"/>
<path d="M0 0 C3.70597376 0.41177486 5.33942024 2.00976831 7.75 4.75 C8.67039062 5.76320313 8.67039062 5.76320313 9.609375 6.796875 C11.25932375 9.41083875 11.27588936 10.96521706 11 14 C8.8125 14.8125 8.8125 14.8125 6 15 C3.375 12.8125 3.375 12.8125 1 10 C0.38125 9.34 -0.2375 8.68 -0.875 8 C-2 6 -2 6 -1.75 3.3125 C-1 1 -1 1 0 0 Z " fill="#525051" transform="translate(62,45)"/>
<path d="M0 0 C0 3.51663411 -0.66325487 4.27276873 -2.75 7 C-3.26046875 7.680625 -3.7709375 8.36125 -4.296875 9.0625 C-6.06322109 11.07192124 -7.74042059 12.56863297 -10 14 C-12.625 13.875 -12.625 13.875 -15 13 C-15.66 12.01 -16.32 11.02 -17 10 C-17.99 9.67 -18.98 9.34 -20 9 C-19.25 7.0625 -19.25 7.0625 -18 5 C-15.9375 4.1875 -15.9375 4.1875 -14 4 C-13.67 4.33 -13.34 4.66 -13 5 C-9.69896327 5.38835726 -7.10935494 5.68972938 -4.203125 3.8828125 C-2.74469787 2.65356678 -1.36525997 1.33196095 0 0 Z " fill="#474546" transform="translate(162,139)"/>
<path d="M0 0 C3 1 3 1 4 3 C4.54724071 8.69130337 3.59333707 11.56117185 0 16 C-2.70879335 17.35439668 -5.00933268 17.06501451 -8 17 C-7.8125 14.25 -7.8125 14.25 -7 11 C-6.195625 10.360625 -5.39125 9.72125 -4.5625 9.0625 C-1.25152757 6.39757097 -0.86208658 4.07531838 0 0 Z " fill="#F3F3F3" transform="translate(118,96)"/>
<path d="M0 0 C1 2 1 2 0.21484375 4.87109375 C-4.70905801 18.61886839 -11.21620018 29.1871349 -21 40 C-21.79277344 40.90685547 -21.79277344 40.90685547 -22.6015625 41.83203125 C-25.02329834 43.8546542 -27.95651862 43.71287912 -31 44 C-27.60017652 39.21506325 -27.60017652 39.21506325 -24.65625 38.16015625 C-13.13855943 33.12963551 -5.8918497 14.9192753 -1.5 4.0625 C-0.99049776 2.71187984 -0.48611808 1.35921175 0 0 Z " fill="#B39343" transform="translate(204,145)"/>
<path d="M0 0 C3.48670834 1.1094072 6.77484237 2.26337666 10 4 C10 4.99 10 5.98 10 7 C7.36 6.67 4.72 6.34 2 6 C1.67 6.99 1.34 7.98 1 9 C2.32 9.33 3.64 9.66 5 10 C5 10.99 5 11.98 5 13 C3.02 13 1.04 13 -1 13 C-1.66 14.65 -2.32 16.3 -3 18 C-4.32 17.67 -5.64 17.34 -7 17 C-5.24009216 11.08030998 -2.60305395 5.58365008 0 0 Z " fill="#484647" transform="translate(87,206)"/>
<path d="M0 0 C6.21742345 0.24869694 9.29031292 2.25147355 14 6 C13.67 7.65 13.34 9.3 13 11 C7.29290936 10.53411505 3.84060277 9.06242216 -1 6 C-1.042721 4.33388095 -1.04063832 2.66617115 -1 1 C-0.67 0.67 -0.34 0.34 0 0 Z " fill="#484747" transform="translate(37,75)"/>
<path d="M0 0 C8 1 8 1 11 2 C11 2.99 11 3.98 11 5 C8.36 4.67 5.72 4.34 3 4 C3 5.32 3 6.64 3 8 C4.65 8.33 6.3 8.66 8 9 C7.67 9.99 7.34 10.98 7 12 C4.03 11.505 4.03 11.505 1 11 C0.67 13.31 0.34 15.62 0 18 C-1.32 17.67 -2.64 17.34 -4 17 C-2.68 11.39 -1.36 5.78 0 0 Z " fill="#484647" transform="translate(99,212)"/>
<path d="M0 0 C0.99 0 1.98 0 3 0 C3.66 2.31 4.32 4.62 5 7 C5.33 4.69 5.66 2.38 6 0 C6.66 0 7.32 0 8 0 C8 5.61 8 11.22 8 17 C7.01 17 6.02 17 5 17 C4.34 14.36 3.68 11.72 3 9 C2.67 11.31 2.34 13.62 2 16 C1.34 16 0.68 16 0 16 C0 10.72 0 5.44 0 0 Z " fill="#545353" transform="translate(129,23)"/>
<path d="M0 0 C2.875 -0.125 2.875 -0.125 6 0 C8 2 8 2 8.3125 5.5 C8.1578125 7.2325 8.1578125 7.2325 8 9 C7.01 9.66 6.02 10.32 5 11 C4.7497843 14.08365871 4.7497843 14.08365871 5 17 C4.01 17 3.02 17 2 17 C1.66151348 15.10507994 1.32943089 13.20901534 1 11.3125 C0.814375 10.25675781 0.62875 9.20101562 0.4375 8.11328125 C0.04931926 5.35095938 -0.08259976 2.78257957 0 0 Z " fill="#5A5959" transform="translate(109,24)"/>
<path d="M0 0 C1.32 0 2.64 0 4 0 C4.50404808 2.10320063 5.00310508 4.20759791 5.5 6.3125 C5.7784375 7.48425781 6.056875 8.65601563 6.34375 9.86328125 C7 13 7 13 7 16 C6.34 16 5.68 16 5 16 C5 15.34 5 14.68 5 14 C4.01 14 3.02 14 2 14 C2 14.99 2 15.98 2 17 C1.01 17 0.02 17 -1 17 C-0.67 11.39 -0.34 5.78 0 0 Z " fill="#514F50" transform="translate(120,23)"/>
<path d="M0 0 C5.46737191 1.74807129 10.75824848 3.65794081 16 6 C15.67 6.99 15.34 7.98 15 9 C12.69 8.34 10.38 7.68 8 7 C9.95216435 8.95216435 11.53199953 9.84826645 14 11 C14 11.66 14 12.32 14 13 C10.05050296 12.37183502 6.80107972 11.1354471 3.1875 9.4375 C2.21167969 8.98246094 1.23585937 8.52742188 0.23046875 8.05859375 C-0.50558594 7.70925781 -1.24164062 7.35992187 -2 7 C-2 6.34 -2 5.68 -2 5 C0.31 5.33 2.62 5.66 5 6 C2.22739701 4.06201737 2.22739701 4.06201737 0 3 C0 2.01 0 1.02 0 0 Z " fill="#4D4B4C" transform="translate(32,83)"/>
<path d="M0 0 C0.99 0 1.98 0 3 0 C2.67 5.61 2.34 11.22 2 17 C1.01 17 0.02 17 -1 17 C-1.66 16.01 -2.32 15.02 -3 14 C-3.33 14.66 -3.66 15.32 -4 16 C-4.66 16 -5.32 16 -6 16 C-5.52412884 9.97229862 -2.80277043 5.23321711 0 0 Z " fill="#535152" transform="translate(153,26)"/>
<path d="M0 0 C0.99 0 1.98 0 3 0 C3 1.32 3 2.64 3 4 C6.96 5.98 10.92 7.96 15 10 C14.34 11.32 13.68 12.64 13 14 C8.71 12.02 4.42 10.04 0 8 C-0.33 8.66 -0.66 9.32 -1 10 C-1.99 10 -2.98 10 -4 10 C-3.43768609 6.06380262 -2.38314183 3.20807554 0 0 Z " fill="#464445" transform="translate(209,162)"/>
<path d="M0 0 C0.66 0.33 1.32 0.66 2 1 C2 1.66 2 2.32 2 3 C0.1015625 4.7265625 0.1015625 4.7265625 -2.375 6.625 C-3.59316406 7.57246094 -3.59316406 7.57246094 -4.8359375 8.5390625 C-7 10 -7 10 -9 10 C-9 10.66 -9 11.32 -9 12 C-5.99865044 10.32277525 -3.42382804 8.53757316 -0.875 6.25 C0.07375 5.5075 1.0225 4.765 2 4 C2.99 4.33 3.98 4.66 5 5 C3.35446591 6.69393215 1.69580608 8.35732623 0 10 C-0.75603516 10.73283203 -0.75603516 10.73283203 -1.52734375 11.48046875 C-3.0625 12.875 -3.0625 12.875 -6 15 C-8.375 14.8125 -8.375 14.8125 -10 14 C-10.33 12.35 -10.66 10.7 -11 9 C-9.73113036 7.87278564 -8.45982438 6.74831342 -7.1875 5.625 C-6.47980469 4.99851562 -5.77210938 4.37203125 -5.04296875 3.7265625 C-3 2 -3 2 0 0 Z " fill="#4C4B4C" transform="translate(208,60)"/>
<path d="M0 0 C0.66 0.66 1.32 1.32 2 2 C1.625 4.125 1.625 4.125 1 6 C2.32 5.34 3.64 4.68 5 4 C3.53033642 7.39859703 1.61962486 9.64963709 -1 12.25 C-1.70125 12.95640625 -2.4025 13.6628125 -3.125 14.390625 C-5 16 -5 16 -7 16 C-6.34 13.69 -5.68 11.38 -5 9 C-6.65 10.32 -8.3 11.64 -10 13 C-10.33 12.01 -10.66 11.02 -11 10 C-10.45730469 9.52949219 -9.91460937 9.05898438 -9.35546875 8.57421875 C-8.64003906 7.95160156 -7.92460937 7.32898437 -7.1875 6.6875 C-6.47980469 6.07261719 -5.77210938 5.45773438 -5.04296875 4.82421875 C-3.29863261 3.26665665 -1.63221959 1.67341125 0 0 Z " fill="#515050" transform="translate(200,52)"/>
<path d="M0 0 C0.66 0 1.32 0 2 0 C2.8394882 2.10171867 3.67139656 4.20646625 4.5 6.3125 C4.9640625 7.48425781 5.428125 8.65601563 5.90625 9.86328125 C7 13 7 13 7 16 C6.01 15.67 5.02 15.34 4 15 C3.67 13.02 3.34 11.04 3 9 C2.34 9.66 1.68 10.32 1 11 C1.66 13.31 2.32 15.62 3 18 C2.01 18 1.02 18 0 18 C-0.8394882 15.89828133 -1.67139656 13.79353375 -2.5 11.6875 C-2.9640625 10.51574219 -3.428125 9.34398437 -3.90625 8.13671875 C-5 5 -5 5 -5 2 C-4.01 2.33 -3.02 2.66 -2 3 C-1.67 4.65 -1.34 6.3 -1 8 C-0.34 8 0.32 8 1 8 C0.34 5.69 -0.32 3.38 -1 1 C-0.67 0.67 -0.34 0.34 0 0 Z " fill="#4B494A" transform="translate(91,29)"/>
<path d="M0 0 C0 0.99 0 1.98 0 3 C-1.65 3.33 -3.3 3.66 -5 4 C-4.31114204 7.21061378 -4.31114204 7.21061378 -1.4375 8.375 C-0.633125 8.91125 0.17125 9.4475 1 10 C1.3125 12.6875 1.3125 12.6875 1 15 C-0.32 15.33 -1.64 15.66 -3 16 C-3.66 14.68 -4.32 13.36 -5 12 C-5.66 12 -6.32 12 -7 12 C-7.38909985 10.54536519 -7.76088029 9.08608793 -8.125 7.625 C-8.33382812 6.81289062 -8.54265625 6.00078125 -8.7578125 5.1640625 C-8.83773437 4.44992188 -8.91765625 3.73578125 -9 3 C-6.31795079 0.31795079 -3.73391546 0 0 0 Z " fill="#484647" transform="translate(155,212)"/>
<path d="M0 0 C0.99 0.33 1.98 0.66 3 1 C3 1.66 3 2.32 3 3 C3.99 2.34 4.98 1.68 6 1 C6 2.32 6 3.64 6 5 C5 6 4 7 3 8 C2.42676193 10.27161255 2.42676193 10.27161255 2.3125 12.6875 C2.24675781 13.49574219 2.18101562 14.30398437 2.11328125 15.13671875 C2.07589844 15.75160156 2.03851563 16.36648437 2 17 C1.34 17 0.68 17 0 17 C-0.33 15.35 -0.66 13.7 -1 12 C-1.33 12.99 -1.66 13.98 -2 15 C-2.99 15 -3.98 15 -5 15 C-1.92482916 4.44191344 -1.92482916 4.44191344 0 0 Z " fill="#444243" transform="translate(161,29)"/>
<path d="M0 0 C2.625 0.375 2.625 0.375 5 1 C5 2.98 5 4.96 5 7 C4.34 7 3.68 7 3 7 C3 5.35 3 3.7 3 2 C2.34 2 1.68 2 1 2 C0.67 5.96 0.34 9.92 0 14 C0.66 14 1.32 14 2 14 C2 12.68 2 11.36 2 10 C2.66 10 3.32 10 4 10 C4.125 12.375 4.125 12.375 4 15 C3.34 15.66 2.68 16.32 2 17 C-1.53571429 16.46428571 -1.53571429 16.46428571 -3 15 C-2.96200774 12.8519758 -2.84473342 10.70509867 -2.6875 8.5625 C-2.60886719 7.38816406 -2.53023437 6.21382812 -2.44921875 5.00390625 C-2 2 -2 2 0 0 Z " fill="#464445" transform="translate(142,24)"/>
<path d="M0 0 C0.97952706 2.56905899 1.14735537 3.64856669 0.06640625 6.2265625 C-5.40795347 14.95709982 -11.52091849 22.89487257 -19 30 C-19.66 29.67 -20.32 29.34 -21 29 C-20.50371094 28.55011719 -20.00742188 28.10023438 -19.49609375 27.63671875 C-11.94016831 20.48224665 -6.63042668 12.35882259 -2.82421875 2.6796875 C-2 1 -2 1 0 0 Z " fill="#594F39" transform="translate(194,153)"/>
<path d="M0 0 C1.98 0 3.96 0 6 0 C5.01 1.485 5.01 1.485 4 3 C4 3.99 4 4.98 4 6 C5.32 6 6.64 6 8 6 C7.67 6.598125 7.34 7.19625 7 7.8125 C5.79212012 10.05386471 5.79212012 10.05386471 6 13 C7.32 13 8.64 13 10 13 C10 13.66 10 14.32 10 15 C8.02 15.33 6.04 15.66 4 16 C3.32815382 13.89748139 2.66269032 11.79292237 2 9.6875 C1.443125 7.92986328 1.443125 7.92986328 0.875 6.13671875 C0 3 0 3 0 0 Z " fill="#565556" transform="translate(96,27)"/>
<path d="M0 0 C2.475 0.99 2.475 0.99 5 2 C5 2.66 5 3.32 5 4 C3.68 4 2.36 4 1 4 C0.67 5.32 0.34 6.64 0 8 C0.66 8 1.32 8 2 8 C2 8.66 2 9.32 2 10 C0.68 10 -0.64 10 -2 10 C-2.33 11.65 -2.66 13.3 -3 15 C-2.34 15 -1.68 15 -1 15 C-1 15.66 -1 16.32 -1 17 C-2.65 16.67 -4.3 16.34 -6 16 C-5.52412884 9.97229862 -2.80277043 5.23321711 0 0 Z " fill="#4F4D4E" transform="translate(171,32)"/>
<path d="M0 0 C0.66 0.33 1.32 0.66 2 1 C0.48103715 3.87803487 -0.78470545 5.82969237 -3.35546875 7.86328125 C-6.03671694 10.02966642 -7.99938941 12.23255633 -10.125 14.9375 C-10.78757812 15.77152344 -11.45015625 16.60554688 -12.1328125 17.46484375 C-13.92654401 19.90026583 -15.49113633 22.38057518 -17 25 C-17.33 24.34 -17.66 23.68 -18 23 C-13.62106069 14.18087747 -6.90460168 6.90460168 0 0 Z " fill="#B69645" transform="translate(81,69)"/>
<path d="M0 0 C1.30092709 3.90278127 0.36437068 5.15452503 -1.25 8.875 C-1.68828125 9.90367187 -2.1265625 10.93234375 -2.578125 11.9921875 C-6.46445498 20.21327014 -6.46445498 20.21327014 -11 22 C-12.11375 22.556875 -12.11375 22.556875 -13.25 23.125 C-13.8275 23.41375 -14.405 23.7025 -15 24 C-13.90338375 21.30830558 -12.84125641 19.85198233 -10.6875 17.84375 C-7.56648449 14.5412801 -5.71766481 11.21315888 -3.6875 7.1875 C-3.32849609 6.49462891 -2.96949219 5.80175781 -2.59960938 5.08789062 C-1.72463149 3.39626671 -0.86111381 1.69872328 0 0 Z " fill="#B79442" transform="translate(193,148)"/>
<path d="M0 0 C1 3 1 3 -0.1171875 5.34765625 C-4.52235288 12.15118944 -9.39835938 18.14431672 -15 24 C-15.66 23.67 -16.32 23.34 -17 23 C-16.25234375 22.0821875 -15.5046875 21.164375 -14.734375 20.21875 C-9.75347606 14.03495512 -5.28228747 8.2781157 -2 1 C-1.34 0.67 -0.68 0.34 0 0 Z " fill="#453F37" transform="translate(196,160)"/>
<path d="M0 0 C2.125 0.9375 2.125 0.9375 4 2 C0.75305402 4.82343129 -2.829668 6.33589038 -6.73828125 8.015625 C-9.54733995 9.2382205 -12.2745116 10.60231364 -15 12 C-15 11.01 -15 10.02 -15 9 C-12.89398991 7.47536735 -10.86685132 6.16619285 -8.625 4.875 C-7.72007813 4.33552734 -7.72007813 4.33552734 -6.796875 3.78515625 C-4.56112124 2.45860902 -2.32578789 1.16289394 0 0 Z " fill="#C3A249" transform="translate(95,56)"/>
<path d="M0 0 C0.66 0 1.32 0 2 0 C2.33 1.65 2.66 3.3 3 5 C4.32 5 5.64 5 7 5 C7.33 6.32 7.66 7.64 8 9 C8.99 9 9.98 9 11 9 C11.66 9.66 12.32 10.32 13 11 C12.01 11.99 11.02 12.98 10 14 C6.54798361 12.52278578 4.35038064 10.56205999 1.75 7.875 C1.04359375 7.15054688 0.3371875 6.42609375 -0.390625 5.6796875 C-1.18726563 4.84824219 -1.18726563 4.84824219 -2 4 C-1.34 2.68 -0.68 1.36 0 0 Z " fill="#444344" transform="translate(52,55)"/>
<path d="M0 0 C2.53515625 1.26953125 2.53515625 1.26953125 5.0625 2.8125 C5.89910156 3.31394531 6.73570312 3.81539062 7.59765625 4.33203125 C10.02669099 6.01853179 11.97924976 7.84857769 14 10 C10.14960589 10 8.55879874 8.66173032 5.3125 6.625 C0.49891461 3.72983018 -3.48568181 1.95440122 -9 1 C-5.58764447 -1.14852015 -3.83900097 -1.05516401 0 0 Z " fill="#C2A249" transform="translate(163,57)"/>
<path d="M0 0 C0.66 0 1.32 0 2 0 C4 3 4 3 4 6 C3.42378906 6.11214844 2.84757813 6.22429687 2.25390625 6.33984375 C-0.9490841 7.27798131 -3.35478727 9.08299406 -6.09765625 10.94140625 C-8 12 -8 12 -11 12 C-9.57629877 7.72889631 -6.76604289 6.76924125 -3.03125 4.5 C-0.7091093 3.0861604 -0.7091093 3.0861604 0 0 Z " fill="#515051" transform="translate(213,68)"/>
<path d="M0 0 C0.66 0.66 1.32 1.32 2 2 C1.625 4.625 1.625 4.625 1 7 C2.32 6.67 3.64 6.34 5 6 C4.95875 6.721875 4.9175 7.44375 4.875 8.1875 C5.00921305 11.20729369 5.75170619 13.26935729 7 16 C6.34 16.33 5.68 16.66 5 17 C3.65828736 15.06829319 2.32687117 13.12943124 1 11.1875 C0.2575 10.10855469 -0.485 9.02960937 -1.25 7.91796875 C-3 5 -3 5 -3 2 C-2.01 1.34 -1.02 0.68 0 0 Z " fill="#484647" transform="translate(71,39)"/>
<path d="M0 0 C0.639375 0.66 1.27875 1.32 1.9375 2 C7.8115795 7.84079859 13.58432539 13.21327254 21 17 C20.34 17.99 19.68 18.98 19 20 C2.73868915 7.95458455 2.73868915 7.95458455 0 0 Z " fill="#B29345" transform="translate(72,168)"/>
<path d="M0 0 C6.32349089 4.77488087 10.01486165 10.19256003 14 17 C13.01 17 12.02 17 11 17 C9.3515625 15.2421875 9.3515625 15.2421875 7.625 12.875 C6.71427734 11.65103516 6.71427734 11.65103516 5.78515625 10.40234375 C5.19605469 9.60957031 4.60695312 8.81679687 4 8 C2.36002385 5.97559054 0.68299423 3.98899318 -1 2 C-0.67 1.34 -0.34 0.68 0 0 Z " fill="#CBA749" transform="translate(171,79)"/>
<path d="M0 0 C0.639375 0.639375 1.27875 1.27875 1.9375 1.9375 C2.38867188 2.38738281 2.83984375 2.83726562 3.3046875 3.30078125 C4.60658843 4.60568195 5.9023052 5.91675493 7.1953125 7.23046875 C7.97648437 8.02066406 8.75765625 8.81085938 9.5625 9.625 C10.30628906 10.38039062 11.05007812 11.13578125 11.81640625 11.9140625 C13.78651125 13.79605905 15.78340502 15.42174416 18 17 C17.67 17.99 17.34 18.98 17 20 C10.44851346 14.76952164 4.88794124 8.82275132 0 2 C0 1.34 0 0.68 0 0 Z " fill="#AC8E43" transform="translate(66,168)"/>
<path d="M0 0 C1.89286684 4.86571292 -0.61522697 8.5065026 -2.5859375 13.00390625 C-4.22153459 16.46938407 -5.99665192 19.73528462 -8 23 C-8.99 23 -9.98 23 -11 23 C-9.78831689 20.57057536 -8.56824975 18.145664 -7.34375 15.72265625 C-6.72911951 14.50262792 -6.11453737 13.28257524 -5.5 12.0625 C-5.19191406 11.45470703 -4.88382813 10.84691406 -4.56640625 10.22070312 C-2.88011295 6.86620979 -1.33229929 3.51060863 0 0 Z " fill="#B18F41" transform="translate(198,147)"/>
<path d="M0 0 C0.99 0 1.98 0 3 0 C3.66 2.64 4.32 5.28 5 8 C4.01 8.495 4.01 8.495 3 9 C2.59270772 11.32156597 2.25561323 13.6568787 2 16 C1.34 16 0.68 16 0 16 C0 10.72 0 5.44 0 0 Z " fill="#4C4A4B" transform="translate(129,23)"/>
<path d="M0 0 C0.83848804 1.45537568 1.67063934 2.91440373 2.5 4.375 C3.19609375 5.59316406 3.19609375 5.59316406 3.90625 6.8359375 C5 9 5 9 5 11 C3.68 11.33 2.36 11.66 1 12 C0.16151196 10.54462432 -0.67063934 9.08559627 -1.5 7.625 C-2.19609375 6.40683594 -2.19609375 6.40683594 -2.90625 5.1640625 C-4 3 -4 3 -4 1 C-2 0 -2 0 0 0 Z " fill="#E8E8E8" transform="translate(174,207)"/>
<path d="M0 0 C2.66666667 2.66666667 5.33333333 5.33333333 8 8 C7.67 8.99 7.34 9.98 7 11 C6.01 11 5.02 11 4 11 C2.39453125 9.3203125 2.39453125 9.3203125 0.8125 7.125 C0.01779297 6.04605469 0.01779297 6.04605469 -0.79296875 4.9453125 C-2 3 -2 3 -2 1 C-1.34 0.67 -0.68 0.34 0 0 Z " fill="#EDEDED" transform="translate(184,199)"/>
<path d="M0 0 C2 2 2 2 2.375 4.1875 C2.96543679 6.84446556 3.69456496 8.3836094 5.0625 10.6875 C7 14 7 14 7 16 C6.01 16 5.02 16 4 16 C3.16180842 14.37750059 2.3295884 12.75191503 1.5 11.125 C1.0359375 10.22007813 0.571875 9.31515625 0.09375 8.3828125 C-1 6 -1 6 -1 4 C-1.99 4 -2.98 4 -4 4 C-4 3.34 -4 2.68 -4 2 C-2.68 1.34 -1.36 0.68 0 0 Z " fill="#454344" transform="translate(82,33)"/>
<path d="M0 0 C1.32 0.33 2.64 0.66 4 1 C2.66511872 4.59391114 1.03977277 7.75490696 -1 11 C-2.32 10.67 -3.64 10.34 -5 10 C-3.66511872 6.40608886 -2.03977277 3.24509304 0 0 Z " fill="#F1F0F0" transform="translate(76,204)"/>
<path d="M0 0 C3.44463128 1.26243031 6.22159636 2.72708479 9.1875 4.875 C13.85158939 8.07861695 18.68566901 10.11391176 24 12 C18.7039996 13.76533347 13.82126927 10.34516061 9 8 C5.85631497 6.19480271 2.75259555 4.37029061 0 2 C0 1.34 0 0.68 0 0 Z " fill="#62573C" transform="translate(83,183)"/>
<path d="M0 0 C6.12722944 5.88214027 11.48934459 12.54850099 17 19 C14 19 14 19 12.421875 17.8203125 C0 5.22429907 0 5.22429907 0 0 Z " fill="#AD8E43" transform="translate(61,168)"/>
<path d="M0 0 C1 2 1 2 0.1796875 4.94140625 C-2.35355044 11.97227922 -5.03805226 18.62716492 -9 25 C-9.66 24.34 -10.32 23.68 -11 23 C-10.45730469 21.92621094 -9.91460937 20.85242188 -9.35546875 19.74609375 C-8.63270385 18.30995051 -7.91005372 16.8737495 -7.1875 15.4375 C-6.83107422 14.73302734 -6.47464844 14.02855469 -6.10742188 13.30273438 C-3.90907591 8.92621075 -1.88336074 4.52125402 0 0 Z " fill="#A5863F" transform="translate(204,145)"/>
<path d="M0 0 C1 3 1 3 -0.0390625 5.7421875 C-5.29559748 16.12578616 -5.29559748 16.12578616 -10 20 C-8.21127475 15.42419121 -6.17969187 10.98271532 -4.12109375 6.5234375 C-2.93154689 3.95494272 -2.93154689 3.95494272 -2 1 C-1.34 0.67 -0.68 0.34 0 0 Z " fill="#464037" transform="translate(191,148)"/>
<path d="M0 0 C0.66 0.33 1.32 0.66 2 1 C1.46375 1.66 0.9275 2.32 0.375 3 C-3.04965179 7.32587594 -6.41262832 11.7124343 -9.55859375 16.24609375 C-10.03425781 16.82488281 -10.50992188 17.40367188 -11 18 C-11.66 18 -12.32 18 -13 18 C-11.56045392 13.70483261 -9.40353948 10.76752344 -6.5 7.3125 C-5.7059375 6.35988281 -4.911875 5.40726562 -4.09375 4.42578125 C-2 2 -2 2 0 0 Z " fill="#BF9D46" transform="translate(82,74)"/>
<path d="M0 0 C1.32 0.66 2.64 1.32 4 2 C3.67 2.66 3.34 3.32 3 4 C2.01 4.33 1.02 4.66 0 5 C-1.33393415 6.60049987 -1.33393415 6.60049987 -2.5 8.5 C-4.66666667 11.88888889 -4.66666667 11.88888889 -8 13 C-6.40956621 7.91061189 -3.2553049 4.12543357 0 0 Z " fill="#474546" transform="translate(183,39)"/>
<path d="M0 0 C0.66 0.33 1.32 0.66 2 1 C1.20335938 1.59167969 0.40671875 2.18335937 -0.4140625 2.79296875 C-5.71419453 6.74135003 -10.98913514 10.68508859 -16 15 C-16 12 -16 12 -14.53125 10.3515625 C-5.00881834 2.25749559 -5.00881834 2.25749559 0 0 Z " fill="#484238" transform="translate(89,62)"/>
<path d="M0 0 C5.39158568 4.91585753 10.27775138 11.17343807 13 18 C12.67 18.99 12.34 19.98 12 21 C11.47212891 19.948125 11.47212891 19.948125 10.93359375 18.875 C7.6098295 12.48781856 4.01007482 7.17312459 -1 2 C-0.67 1.34 -0.34 0.68 0 0 Z " fill="#B09043" transform="translate(178,80)"/>
<path d="M0 0 C0.66 0.33 1.32 0.66 2 1 C1.26394531 1.58007812 0.52789062 2.16015625 -0.23046875 2.7578125 C-5.35358212 6.85901026 -10.07584327 10.72268578 -14 16 C-14.66 15.34 -15.32 14.68 -16 14 C-4.72727273 2.36363636 -4.72727273 2.36363636 0 0 Z " fill="#4C4538" transform="translate(88,68)"/>
<path d="M0 0 C4.67171717 4.54545455 4.67171717 4.54545455 6.625 7.25 C7.97372834 9.29712875 7.97372834 9.29712875 11 10 C11 10.66 11 11.32 11 12 C7.66182473 12 5.64546087 11.63548686 3.23046875 9.2578125 C1.62771066 7.20838412 0.16458289 5.32916577 -1 3 C-0.67 2.01 -0.34 1.02 0 0 Z " fill="#444243" transform="translate(61,48)"/>
<path d="M0 0 C0.66 0.66 1.32 1.32 2 2 C0.73831709 4.4634284 -0.53372354 6.92046584 -1.8125 9.375 C-2.16892578 10.07367188 -2.52535156 10.77234375 -2.89257812 11.4921875 C-3.24384766 12.1625 -3.59511719 12.8328125 -3.95703125 13.5234375 C-4.43619995 14.450354 -4.43619995 14.450354 -4.92504883 15.39599609 C-6 17 -6 17 -9 19 C-7.39369175 14.75707468 -5.4231838 10.72974893 -3.375 6.6875 C-3.05015625 6.04232422 -2.7253125 5.39714844 -2.390625 4.73242188 C-1.59558044 3.15402459 -0.79804366 1.57688306 0 0 Z " fill="#63563B" transform="translate(186,147)"/>
<path d="M0 0 C0.66 0 1.32 0 2 0 C0.53033642 3.39859703 -1.38037514 5.64963709 -4 8.25 C-4.70125 8.95640625 -5.4025 9.6628125 -6.125 10.390625 C-8 12 -8 12 -10 12 C-9.25 9.0625 -9.25 9.0625 -8 6 C-6.125 5.4375 -6.125 5.4375 -4 5 C-2.63755204 3.35704805 -1.30135125 1.69175663 0 0 Z " fill="#413F40" transform="translate(203,56)"/>
<path d="M0 0 C0.66 0.33 1.32 0.66 2 1 C-2 5 -6 9 -10 13 C-10 9 -10 9 -7.8125 6.640625 C-6.884375 5.85171875 -5.95625 5.0628125 -5 4.25 C-4.071875 3.45078125 -3.14375 2.6515625 -2.1875 1.828125 C-1.465625 1.22484375 -0.74375 0.6215625 0 0 Z " fill="#5A503A" transform="translate(86,75)"/>
<path d="M0 0 C0.66 0 1.32 0 2 0 C0.19499838 9.93812655 0.19499838 9.93812655 -3 13 C-3.66 13 -4.32 13 -5 13 C-3.58192622 8.52761347 -1.88695626 4.28853694 0 0 Z " fill="#BF9B44" transform="translate(188,146)"/>
<path d="M0 0 C2.4375 0.6875 2.4375 0.6875 5 2 C5.875 4.5625 5.875 4.5625 6 7 C5 8 5 8 2.4375 8.0625 C1.633125 8.041875 0.82875 8.02125 0 8 C-0.33 7.01 -0.66 6.02 -1 5 C1.475 5.495 1.475 5.495 4 6 C4 5.34 4 4.68 4 4 C2.68 3.34 1.36 2.68 0 2 C0 1.34 0 0.68 0 0 Z " fill="#3F3E3E" transform="translate(45,78)"/>
<path d="M0 0 C1.98 0 3.96 0 6 0 C6.33 1.32 6.66 2.64 7 4 C6.34 4 5.68 4 5 4 C5 3.34 5 2.68 5 2 C4.34 2 3.68 2 3 2 C3 3.98 3 5.96 3 8 C2.34 8 1.68 8 1 8 C0.67 5.36 0.34 2.72 0 0 Z " fill="#494748" transform="translate(109,24)"/>
<path d="M0 0 C0.33 1.32 0.66 2.64 1 4 C1.66 4 2.32 4 3 4 C3 2.68 3 1.36 3 0 C3.66 0 4.32 0 5 0 C5.125 2.375 5.125 2.375 5 5 C4.34 5.66 3.68 6.32 3 7 C0.875 6.625 0.875 6.625 -1 6 C-1 2 -1 2 0 0 Z " fill="#535152" transform="translate(141,34)"/>
<path d="M0 0 C0.66 0 1.32 0 2 0 C2 0.66 2 1.32 2 2 C7.94 3.485 7.94 3.485 14 5 C14 5.33 14 5.66 14 6 C8.39538469 5.57910004 3.27913453 5.08386889 -2 3 C-1.34 2.67 -0.68 2.34 0 2 C0 1.34 0 0.68 0 0 Z " fill="#5E543C" transform="translate(106,179)"/>
<path d="M0 0 C1.98 0 3.96 0 6 0 C5.67 1.32 5.34 2.64 5 4 C4.01 4 3.02 4 2 4 C1.67 4.99 1.34 5.98 1 7 C0.34 6.34 -0.32 5.68 -1 5 C-0.625 2.375 -0.625 2.375 0 0 Z " fill="#4E4C4D" transform="translate(213,150)"/>
<path d="M0 0 C0.66 0 1.32 0 2 0 C0.63356852 3.98542514 -1.10109014 6.92539863 -4 10 C-4.99 10 -5.98 10 -7 10 C-5.32598022 6.04322598 -2.86850715 3.15535787 0 0 Z " fill="#DFDFDF" transform="translate(192,48)"/>
<path d="M0 0 C0.99 0 1.98 0 3 0 C2.8864371 1.64666203 2.75882619 3.29236082 2.625 4.9375 C2.55539063 5.85402344 2.48578125 6.77054688 2.4140625 7.71484375 C2.27742187 8.46894531 2.14078125 9.22304688 2 10 C1.01 10.495 1.01 10.495 0 11 C0 9.35 0 7.7 0 6 C-0.66 5.67 -1.32 5.34 -2 5 C-1.34 3.35 -0.68 1.7 0 0 Z " fill="#454344" transform="translate(153,26)"/>
<path d="M0 0 C4.34863652 0.56444825 7.17827655 2.15427964 10.8125 4.5625 C12.27623047 5.52349609 12.27623047 5.52349609 13.76953125 6.50390625 C14.50558594 6.99761719 15.24164063 7.49132812 16 8 C15.34 8.66 14.68 9.32 14 10 C12.41606974 8.8966898 10.83288132 7.79231456 9.25 6.6875 C8.36828125 6.07261719 7.4865625 5.45773438 6.578125 4.82421875 C4.35567831 3.25166935 2.16807006 1.64631488 0 0 Z " fill="#594F3A" transform="translate(159,59)"/>
<path d="M0 0 C1.6266848 0.28211877 3.25132896 0.57602375 4.875 0.875 C5.77992187 1.03742188 6.68484375 1.19984375 7.6171875 1.3671875 C10 2 10 2 12 4 C10.35 3.67 8.7 3.34 7 3 C7 3.66 7 4.32 7 5 C4.0625 4.1875 4.0625 4.1875 1 3 C0.67 2.01 0.34 1.02 0 0 Z " fill="#C2A34B" transform="translate(92,196)"/>
<path d="M0 0 C0.66 0.66 1.32 1.32 2 2 C0.19368173 6.15453202 -0.81810551 8.22010276 -5 10 C-4.55090939 8.51800098 -4.09043436 7.03944764 -3.625 5.5625 C-3.36976563 4.73878906 -3.11453125 3.91507812 -2.8515625 3.06640625 C-2 1 -2 1 0 0 Z " fill="#4B494A" transform="translate(184,114)"/>
<path d="M0 0 C4.29718953 1.38914475 6.70687757 3.38031985 9.8125 6.625 C10.99779297 7.85089844 10.99779297 7.85089844 12.20703125 9.1015625 C12.79871094 9.72804688 13.39039063 10.35453125 14 11 C13.34 11.66 12.68 12.32 12 13 C11.46890625 12.39671875 10.9378125 11.7934375 10.390625 11.171875 C9.68421875 10.37265625 8.9778125 9.5734375 8.25 8.75 C7.55390625 7.96109375 6.8578125 7.1721875 6.140625 6.359375 C4.15413084 4.16988144 2.10898692 2.07098715 0 0 Z " fill="#64583C" transform="translate(163,77)"/>
<path d="M0 0 C4.03321763 1.21934486 7.54269479 2.55954927 11 5 C11 5.66 11 6.32 11 7 C6.80639551 6.32902328 3.59665648 4.1441606 0 2 C0 1.34 0 0.68 0 0 Z " fill="#E9E8E9" transform="translate(38,77)"/>
<path d="M0 0 C5.67853635 1.41963409 9.53174216 4.39363961 14 8 C13.34 8.66 12.68 9.32 12 10 C10.56047403 8.89847594 9.12345929 7.7936696 7.6875 6.6875 C6.88699219 6.07261719 6.08648437 5.45773438 5.26171875 4.82421875 C3.37298626 3.30083693 1.66922364 1.75565593 0 0 Z " fill="#5F543B" transform="translate(161,65)"/>
<path d="M0 0 C0.86625 0.556875 0.86625 0.556875 1.75 1.125 C-1.18828597 3.62798434 -3.42902761 4.59430939 -7.25 5.125 C-7 3.25 -7 3.25 -6.25 1.125 C-3.78477471 -0.74517091 -2.92889069 -1.13901305 0 0 Z " fill="#B29648" transform="translate(97.25,56.875)"/>
<path d="M0 0 C-0.33 2.64 -0.66 5.28 -1 8 C-1.99 8 -2.98 8 -4 8 C-4.93423645 4.98968256 -5.04449911 4.13349732 -4 1 C-1 0 -1 0 0 0 Z " fill="#817F80" transform="translate(154,30)"/>
<path d="M0 0 C0.66 0 1.32 0 2 0 C1.45773019 3.79588866 -0.20127563 5.47211993 -3 8 C-3.99 7.67 -4.98 7.34 -6 7 C-5.67 6.34 -5.34 5.68 -5 5 C-4.34 5 -3.68 5 -3 5 C-2.5359375 4.0409375 -2.5359375 4.0409375 -2.0625 3.0625 C-1 1 -1 1 0 0 Z " fill="#515051" transform="translate(191,53)"/>
<path d="M0 0 C6.57142857 5 6.57142857 5 8 10 C4.20401451 8.50871999 2.28279601 6.34266559 0 3 C0 2.01 0 1.02 0 0 Z " fill="#EAE9E9" transform="translate(63,48)"/>
<path d="M0 0 C0.66 0 1.32 0 2 0 C2 0.66 2 1.32 2 2 C2.66 2 3.32 2 4 2 C4.33 1.34 4.66 0.68 5 0 C5 2.31 5 4.62 5 7 C3.35 6.67 1.7 6.34 0 6 C0 4.02 0 2.04 0 0 Z " fill="#999999" transform="translate(112,26)"/>
<path d="M0 0 C0.99 0.33 1.98 0.66 3 1 C0.03 4.3 -2.94 7.6 -6 11 C-6.66 10.67 -7.32 10.34 -8 10 C-5.36 6.7 -2.72 3.4 0 0 Z " fill="#60543A" transform="translate(187,173)"/>
<path d="M0 0 C0.33 0.99 0.66 1.98 1 3 C-0.21484375 5.04296875 -0.21484375 5.04296875 -1.9375 7.1875 C-2.50339844 7.90292969 -3.06929687 8.61835937 -3.65234375 9.35546875 C-4.09707031 9.89816406 -4.54179687 10.44085938 -5 11 C-5.33 10.01 -5.66 9.02 -6 8 C-4.78515625 5.95703125 -4.78515625 5.95703125 -3.0625 3.8125 C-2.49660156 3.09707031 -1.93070313 2.38164063 -1.34765625 1.64453125 C-0.90292969 1.10183594 -0.45820313 0.55914062 0 0 Z " fill="#E8E7E8" transform="translate(184,42)"/>
<path d="M0 0 C0.33 2.31 0.66 4.62 1 7 C0.34 7 -0.32 7 -1 7 C-1 7.66 -1 8.32 -1 9 C-1.66 9 -2.32 9 -3 9 C-3 6.36 -3 3.72 -3 1 C-1 0 -1 0 0 0 Z " fill="#858485" transform="translate(125,26)"/>
<path d="M0 0 C2.95409701 1.37154504 5.44008376 2.98863724 8 5 C7.67 5.99 7.34 6.98 7 8 C5.8274869 7.04882866 4.66212985 6.08882991 3.5 5.125 C2.8503125 4.59132812 2.200625 4.05765625 1.53125 3.5078125 C1.0259375 3.01023438 0.520625 2.51265625 0 2 C0 1.34 0 0.68 0 0 Z " fill="#C19F47" transform="translate(76,180)"/>
<path d="M0 0 C4.98012761 1.50912958 8.24259942 4.55661849 12 8 C11.34 8.66 10.68 9.32 10 10 C8.33037631 8.52417192 6.6643694 7.04425109 5 5.5625 C4.071875 4.73878906 3.14375 3.91507812 2.1875 3.06640625 C1.465625 2.38449219 0.74375 1.70257813 0 1 C0 0.67 0 0.34 0 0 Z " fill="#5C523B" transform="translate(164,72)"/>
<path d="M0 0 C0.33 0.66 0.66 1.32 1 2 C-0.98 4.31 -2.96 6.62 -5 9 C-5.66 8.67 -6.32 8.34 -7 8 C-7 7.34 -7 6.68 -7 6 C-5.46875 4.4921875 -5.46875 4.4921875 -3.5 2.875 C-2.8503125 2.33617187 -2.200625 1.79734375 -1.53125 1.2421875 C-1.0259375 0.83226562 -0.520625 0.42234375 0 0 Z " fill="#474546" transform="translate(196,56)"/>
<path d="M0 0 C3.45925163 1.2491742 6.14693203 2.67527795 9 5 C8.34 5.66 7.68 6.32 7 7 C5.82780457 6.21654285 4.66236332 5.42297164 3.5 4.625 C2.8503125 4.18414062 2.200625 3.74328125 1.53125 3.2890625 C1.0259375 2.86367187 0.520625 2.43828125 0 2 C0 1.34 0 0.68 0 0 Z " fill="#C8A64A" transform="translate(84,181)"/>
<path d="M0 0 C-1.24348255 3.73044765 -2.80713575 4.79540326 -6 7 C-6.99 7 -7.98 7 -9 7 C-9 6.34 -9 5.68 -9 5 C-7.5390625 3.7109375 -7.5390625 3.7109375 -5.625 2.375 C-4.99851563 1.92898437 -4.37203125 1.48296875 -3.7265625 1.0234375 C-2 0 -2 0 0 0 Z " fill="#EBEBEB" transform="translate(208,65)"/>
<path d="M0 0 C3.48670834 1.1094072 6.77484237 2.26337666 10 4 C9.67 4.99 9.34 5.98 9 7 C7.4972763 6.02501855 5.99788037 5.04490611 4.5 4.0625 C3.6646875 3.51722656 2.829375 2.97195312 1.96875 2.41015625 C1.3190625 1.94480469 0.669375 1.47945312 0 1 C0 0.67 0 0.34 0 0 Z " fill="#C5A54A" transform="translate(88,179)"/>
<path d="M0 0 C0.33 0.99 0.66 1.98 1 3 C-1.9465385 4.80066242 -4.88801935 6.50163895 -8 8 C-6.49776416 3.79373966 -3.71449966 2.26099979 0 0 Z " fill="#AB8D43" transform="translate(186,164)"/>
<path d="M0 0 C1.98 0.495 1.98 0.495 4 1 C3.67 2.32 3.34 3.64 3 5 C1.68 4.67 0.36 4.34 -1 4 C-0.67 2.68 -0.34 1.36 0 0 Z " fill="#4F4D4E" transform="translate(33,99)"/>
<path d="M0 0 C3.3 0.99 6.6 1.98 10 3 C9.01 3.33 8.02 3.66 7 4 C6.34 3.67 5.68 3.34 5 3 C4.67 3.66 4.34 4.32 4 5 C2.68 4.34 1.36 3.68 0 3 C0 2.01 0 1.02 0 0 Z " fill="#AF9347" transform="translate(87,193)"/>
<path d="M0 0 C1.32 0 2.64 0 4 0 C3.67 1.65 3.34 3.3 3 5 C1.68 4.34 0.36 3.68 -1 3 C-0.67 2.01 -0.34 1.02 0 0 Z " fill="#4D4B4C" transform="translate(51,187)"/>
<path d="M0 0 C0.66 0 1.32 0 2 0 C1.25 4.75 1.25 4.75 -1 7 C-1.99 7.33 -2.98 7.66 -4 8 C-2.87548273 5.0280615 -1.77706209 2.66559313 0 0 Z " fill="#BF9B44" transform="translate(188,158)"/>
<path d="M0 0 C3 1 3 1 4.16796875 2.84765625 C4.50441406 3.57855469 4.84085938 4.30945313 5.1875 5.0625 C5.53167969 5.79597656 5.87585938 6.52945313 6.23046875 7.28515625 C6.48441406 7.85105469 6.73835937 8.41695312 7 9 C2.97449681 7.6581656 2.11714364 5.5772427 0 2 C0 1.34 0 0.68 0 0 Z " fill="#B99845" transform="translate(178,88)"/>
<path d="M0 0 C0.99 0.33 1.98 0.66 3 1 C3 2.32 3 3.64 3 5 C1.35 4.67 -0.3 4.34 -2 4 C-1.34 2.68 -0.68 1.36 0 0 Z " fill="#4D4B4C" transform="translate(214,82)"/>
<path d="M0 0 C1.1446875 0.2475 1.1446875 0.2475 2.3125 0.5 C5.03596236 1.09145396 5.03596236 1.09145396 8 1 C8.66 2.32 9.32 3.64 10 5 C6.08788267 3.84414715 3.1254959 2.64465038 0 0 Z " fill="#403E3F" transform="translate(47,71)"/>
<path d="M0 0 C0.66 0.33 1.32 0.66 2 1 C2 1.66 2 2.32 2 3 C-0.5614657 5.29648649 -1.47967572 6 -5 6 C-3.63016497 2.83884224 -3.0109362 2.0072908 0 0 Z " fill="#535152" transform="translate(208,60)"/>
<path d="M0 0 C0.66 0.99 1.32 1.98 2 3 C0.02 5.64 -1.96 8.28 -4 11 C-4 7.80389448 -3.45328458 6.58282374 -2 3.8125 C-1.62875 3.09707031 -1.2575 2.38164062 -0.875 1.64453125 C-0.441875 0.83048828 -0.441875 0.83048828 0 0 Z " fill="#544B39" transform="translate(186,157)"/>
<path d="M0 0 C2.125 0.375 2.125 0.375 4 1 C3.67 1.99 3.34 2.98 3 4 C0.9375 4.6875 0.9375 4.6875 -1 5 C-1.33 4.01 -1.66 3.02 -2 2 C-1.34 1.34 -0.68 0.68 0 0 Z " fill="#DCDCDC" transform="translate(223,156)"/>
<path d="M0 0 C0.66 0.33 1.32 0.66 2 1 C-1.61328125 5.6875 -1.61328125 5.6875 -3 7 C-3.99 7 -4.98 7 -6 7 C-4.60667426 3.63279613 -3.0210714 2.0140476 0 0 Z " fill="#BB9A46" transform="translate(80,85)"/>
<path d="M0 0 C3.76488042 1.72154788 6.15063897 3.99234114 9 7 C6 7 6 7 4.39453125 5.46875 C3.87246094 4.8190625 3.35039062 4.169375 2.8125 3.5 C2.28269531 2.8503125 1.75289062 2.200625 1.20703125 1.53125 C0.80871094 1.0259375 0.41039062 0.520625 0 0 Z " fill="#9D8544" transform="translate(162,82)"/>
<path d="M0 0 C0.598125 0.350625 1.19625 0.70125 1.8125 1.0625 C-0.1875 3.0625 -0.1875 3.0625 -3.3125 3.1875 C-4.735625 3.125625 -4.735625 3.125625 -6.1875 3.0625 C-5.8575 2.0725 -5.5275 1.0825 -5.1875 0.0625 C-2.1875 -0.9375 -2.1875 -0.9375 0 0 Z " fill="#D0AF4E" transform="translate(102.1875,54.9375)"/>
<path d="M0 0 C0.99 0.33 1.98 0.66 3 1 C2.67 2.98 2.34 4.96 2 7 C0.68 7 -0.64 7 -2 7 C-1.34 4.69 -0.68 2.38 0 0 Z " fill="#494849" transform="translate(161,29)"/>
<path d="M0 0 C1.32 0.33 2.64 0.66 4 1 C3.67 2.32 3.34 3.64 3 5 C2.01 5 1.02 5 0 5 C0 3.35 0 1.7 0 0 Z " fill="#E0E0E0" transform="translate(152,223)"/>
<path d="M0 0 C-1.32 1.32 -2.64 2.64 -4 4 C-4.66 3.67 -5.32 3.34 -6 3 C-6 2.01 -6 1.02 -6 0 C-3 -1 -3 -1 0 0 Z " fill="#EDECEC" transform="translate(221,154)"/>
<path d="M0 0 C1.32 0 2.64 0 4 0 C3.67 1.65 3.34 3.3 3 5 C2.01 4.67 1.02 4.34 0 4 C0 2.68 0 1.36 0 0 Z " fill="#444243" transform="translate(222,139)"/>
<path d="M0 0 C2.97 0.495 2.97 0.495 6 1 C6 1.66 6 2.32 6 3 C4.02 3.33 2.04 3.66 0 4 C0 2.68 0 1.36 0 0 Z " fill="#514F50" transform="translate(100,39)"/>
<path d="M0 0 C1.98 0.66 3.96 1.32 6 2 C5.67 2.99 5.34 3.98 5 5 C3.02 4.01 1.04 3.02 -1 2 C-0.67 1.34 -0.34 0.68 0 0 Z " fill="#E1E1E1" transform="translate(40,89)"/>
</svg>
